<mxfile host="app.diagrams.net" modified="2023-08-25T03:07:22.860Z" agent="5.0 (Macintosh; Intel Mac OS X 10_15_7) AppleWebKit/537.36 (KHTML, like Gecko) Chrome/116.0.0.0 Safari/537.36 Edg/116.0.1938.54" etag="mceKgGlBsZANmG7owYWp" version="18.1.3" type="github">
  <diagram id="YqbfNS59AV8K57wa0ar-" name="Page-1">
    <mxGraphModel dx="2062" dy="1092" grid="1" gridSize="10" guides="1" tooltips="1" connect="1" arrows="1" fold="1" page="1" pageScale="1" pageWidth="827" pageHeight="1169" math="0" shadow="0">
      <root>
        <mxCell id="0" />
        <mxCell id="1" parent="0" />
        <mxCell id="95r4vGn4htXXSL_gkDag-1" value="" style="rounded=1;whiteSpace=wrap;html=1;fillColor=#b0e3e6;strokeColor=#0e8088;shadow=0;sketch=1;glass=0;" vertex="1" parent="1">
          <mxGeometry x="170" y="160" width="180" height="60" as="geometry" />
        </mxCell>
        <mxCell id="95r4vGn4htXXSL_gkDag-2" value="" style="rounded=1;whiteSpace=wrap;html=1;fillColor=#b0e3e6;strokeColor=#0e8088;shadow=0;sketch=1;glass=0;" vertex="1" parent="1">
          <mxGeometry x="170" y="300" width="180" height="60" as="geometry" />
        </mxCell>
      </root>
    </mxGraphModel>
  </diagram>
</mxfile>
